<svg width="29" height="37" viewBox="0 0 29 37" fill="none" xmlns="http://www.w3.org/2000/svg">
<path d="M27.2651 16.7765C26.4967 15.047 25.3796 13.4947 23.9838 12.2167L22.832 11.1599C22.7929 11.125 22.7458 11.1002 22.6949 11.0877C22.644 11.0753 22.5908 11.0755 22.54 11.0884C22.4892 11.1013 22.4423 11.1265 22.4035 11.1617C22.3647 11.1969 22.3352 11.2411 22.3174 11.2905L21.8029 12.7669C21.4823 13.6931 20.8925 14.6391 20.0574 15.5692C20.0019 15.6286 19.9386 15.6444 19.8951 15.6484C19.8515 15.6523 19.7842 15.6444 19.7249 15.589C19.6695 15.5415 19.6417 15.4703 19.6457 15.399C19.7922 13.0162 19.0797 10.3286 17.5202 7.40358C16.2298 4.97329 14.4368 3.07734 12.1965 1.75532L10.5618 0.793493C10.348 0.666832 10.0749 0.833074 10.0868 1.08244L10.1739 2.98234C10.2333 4.28061 10.0828 5.42847 9.72661 6.38238C9.29122 7.55003 8.66583 8.63456 7.86629 9.60826C7.30986 10.285 6.67921 10.897 5.98617 11.433C4.31705 12.7161 2.95983 14.3601 2.01616 16.2421C1.07481 18.1405 0.584461 20.2306 0.583313 22.3495C0.583313 24.2177 0.95142 26.0266 1.67972 27.7326C2.38294 29.3751 3.39778 30.8657 4.66811 32.1221C5.95055 33.3888 7.43881 34.3862 9.09727 35.0789C10.8151 35.7993 12.6358 36.1634 14.516 36.1634C16.3961 36.1634 18.2168 35.7993 19.9346 35.0828C21.589 34.3942 23.0934 33.3899 24.3638 32.1261C25.6462 30.8595 26.6516 29.3792 27.3522 27.7365C28.0794 26.0352 28.4524 24.2037 28.4486 22.3535C28.4486 20.4219 28.0528 18.5457 27.2651 16.7765V16.7765Z" fill="#E55C5C"/>
</svg>
