<svg width="16" height="16" viewBox="0 0 16 16" fill="none" xmlns="http://www.w3.org/2000/svg">
<path d="M14.6666 6.73337C14.7333 6.40004 14.4666 6.00004 14.1333 6.00004L10.3333 5.46671L8.59998 2.00004C8.53331 1.86671 8.46665 1.80004 8.33331 1.73337C7.99998 1.53337 7.59998 1.66671 7.39998 2.00004L5.73331 5.46671L1.93331 6.00004C1.73331 6.00004 1.59998 6.06671 1.53331 6.20004C1.26665 6.46671 1.26665 6.86671 1.53331 7.13337L4.26665 9.80004L3.59998 13.6C3.59998 13.7334 3.59998 13.8667 3.66665 14C3.86665 14.3334 4.26665 14.4667 4.59998 14.2667L7.99998 12.4667L11.4 14.2667C11.4666 14.3334 11.6 14.3334 11.7333 14.3334C11.8 14.3334 11.8 14.3334 11.8666 14.3334C12.2 14.2667 12.4666 13.9334 12.4 13.5334L11.7333 9.73337L14.4666 7.06671C14.6 7.00004 14.6666 6.86671 14.6666 6.73337Z" fill="#FFCF55"/>
</svg>
