<svg width="28" height="28" viewBox="0 0 28 28" fill="none" xmlns="http://www.w3.org/2000/svg">
<g clip-path="url(#clip0_1_1077)">
<path d="M22.3868 9.17513C21.1399 7.27207 19.1876 6.07231 17.0929 5.73445C17.1143 5.58965 17.0929 5.43106 17.0145 5.29316C16.8649 5.03114 16.5585 4.88634 16.245 4.9484L11.9201 5.8103L11.3216 4.03134C11.2361 3.77622 11.001 3.59005 10.7231 3.56247C10.4453 3.53489 10.1745 3.6659 10.032 3.90034L8.74238 6.03094C7.866 5.38279 6.79013 4.9415 5.7 4.9415C5.30813 4.9415 4.9875 5.25179 4.9875 5.63102C4.9875 6.01025 5.30813 6.32054 5.7 6.32054C6.5265 6.32054 7.353 6.70667 8.0085 7.2238L3.88313 9.88534C3.6195 10.0508 3.5055 10.368 3.59813 10.6576C3.68363 10.9472 3.9615 11.1471 4.275 11.1471H6.17738L5.00888 15.0981C4.92338 15.4015 5.05163 15.7186 5.3295 15.8772C5.4435 15.9462 5.57175 15.9669 5.7 15.9669C5.71425 18.2216 6.74738 20.4074 8.64975 21.814C11.4641 23.8894 15.561 24.9444 20.8335 24.9444C21.033 24.9444 21.2325 24.9444 21.432 24.9375C23.085 24.9099 24.4886 23.6894 24.6953 22.0967C25.3721 16.8908 24.5955 12.5469 22.3868 9.17513ZM23.2845 21.9243C23.1634 22.8413 22.3654 23.5447 21.4178 23.5584C16.1809 23.6343 12.1766 22.6828 9.519 20.7176C7.65225 19.3386 6.81863 17.0287 7.23188 14.8085L8.25788 13.8501C7.31738 16.1255 7.99425 18.7249 9.95363 20.1729C12.3833 21.9657 16.0455 22.8758 20.8335 22.8758C21.0259 22.8758 21.2183 22.8758 21.4178 22.8689C21.8096 22.862 22.1231 22.5449 22.116 22.1656C22.1089 21.7864 21.7883 21.4899 21.4035 21.4899C21.3964 21.4899 21.3964 21.4899 21.3893 21.4899C16.6511 21.5726 13.0886 20.7452 10.8229 19.0766C9.29813 17.9527 8.82788 15.8496 9.71138 14.0845L11.5568 16.4013C11.685 16.5667 11.8988 16.6633 12.1125 16.6633C12.1909 16.6633 12.2693 16.6495 12.3405 16.6288C12.6326 16.5323 12.825 16.2703 12.825 15.9738V11.0644L17.898 10.4507C18.2186 10.4094 18.4751 10.168 18.5179 9.85775C18.5606 9.54747 18.3825 9.25098 18.0833 9.12687L15.0765 7.934L15.9885 7.01695C18.0191 7.05142 19.9928 8.0857 21.1826 9.90602C23.2061 13.0088 23.9186 17.0494 23.2845 21.9243ZM8.94188 8.27187C8.95613 8.26497 8.95613 8.25808 8.96325 8.25118C9.15563 8.54767 9.2625 8.83727 9.2625 9.0786C9.2625 9.45784 9.58313 9.76812 9.975 9.76812C10.3669 9.76812 10.6875 9.45784 10.6875 9.0786C10.6875 8.42356 10.3455 7.68578 9.78975 7.01695L10.4524 5.92062L10.7588 6.83078C10.8728 7.16864 11.229 7.36171 11.5781 7.29275L14.2643 6.75493L13.3095 7.71336C13.1456 7.87884 13.0744 8.11328 13.1243 8.33392C13.1741 8.55457 13.3309 8.74074 13.5518 8.83038L15.0195 9.40957L12.0199 9.77501C11.6708 9.81638 11.4 10.1129 11.4 10.4576V13.9466L9.61875 11.7057C9.49763 11.5471 9.30525 11.4505 9.10575 11.4367C9.0915 11.4367 9.07013 11.4367 9.05588 11.4367C8.87063 11.4367 8.6925 11.5057 8.55713 11.6298L7.11788 12.9813L7.809 10.6369C7.87313 10.4369 7.83038 10.2163 7.695 10.0439C7.55963 9.87154 7.34588 9.76812 7.125 9.76812H6.62625L8.94188 8.27187Z" fill="#359740"/>
<path d="M15.1691 13.7055C15.3116 13.8365 15.4897 13.9054 15.675 13.9054C15.8602 13.9054 16.0384 13.8365 16.1809 13.7055C16.4587 13.4365 16.4587 13.0022 16.1809 12.7332L15.4684 12.0437C15.1905 11.7748 14.7416 11.7748 14.4637 12.0437C14.1859 12.3126 14.1859 12.747 14.4637 13.0159L15.1691 13.7055Z" fill="#359740"/>
<path d="M19.4441 13.016C19.5866 13.147 19.7647 13.216 19.95 13.216C20.1352 13.216 20.3134 13.147 20.4559 13.016C20.7337 12.7471 20.7337 12.3127 20.4559 12.0438L19.7434 11.3543C19.4655 11.0854 19.0166 11.0854 18.7387 11.3543C18.4609 11.6232 18.4609 12.0576 18.7387 12.3265L19.4441 13.016Z" fill="#359740"/>
<path d="M16.1809 17.5528L15.4684 16.8633C15.1905 16.5944 14.7416 16.5944 14.4637 16.8633C14.1859 17.1322 14.1859 17.5666 14.4637 17.8355L15.1762 18.525C15.3116 18.6629 15.4897 18.7319 15.675 18.7319C15.8602 18.7319 16.0384 18.6629 16.1809 18.5319C16.4587 18.263 16.4587 17.8217 16.1809 17.5528Z" fill="#359740"/>
<path d="M18.0191 16.4633C18.1616 16.5943 18.3397 16.6632 18.525 16.6632C18.7102 16.6632 18.8884 16.5943 19.0309 16.4633C19.3087 16.1944 19.3087 15.76 19.0309 15.4911L18.3184 14.8015C18.0405 14.5326 17.5916 14.5326 17.3137 14.8015C17.0359 15.0704 17.0359 15.5048 17.3137 15.7738L18.0191 16.4633Z" fill="#359740"/>
<path d="M20.8691 16.4635L21.5816 17.153C21.7241 17.284 21.9023 17.3529 22.0875 17.3529C22.2728 17.3529 22.4509 17.284 22.5934 17.153C22.8713 16.8841 22.8713 16.4497 22.5934 16.1807L21.8809 15.4912C21.603 15.2223 21.1541 15.2223 20.8763 15.4912C20.5913 15.7532 20.5913 16.1945 20.8691 16.4635Z" fill="#359740"/>
<path d="M19.7434 18.2425C19.4655 17.9735 19.0166 17.9735 18.7387 18.2425C18.4609 18.5114 18.4609 18.9458 18.7387 19.2147L19.4512 19.9042C19.5866 20.0421 19.7647 20.111 19.95 20.111C20.1352 20.111 20.3134 20.0421 20.4559 19.9111C20.7337 19.6422 20.7337 19.2078 20.4559 18.9389L19.7434 18.2425Z" fill="#359740"/>
</g>
<defs>
<clipPath id="clip0_1_1077">
<rect width="21.375" height="21.375" fill="white" transform="translate(3.5625 3.5625)"/>
</clipPath>
</defs>
</svg>
