<svg width="32" height="32" viewBox="0 0 32 32" fill="none" xmlns="http://www.w3.org/2000/svg">
<path d="M18.9328 5.80646C18.7487 5.63845 18.4927 5.55844 18.2367 5.61445L17.9967 5.66245C17.6047 5.62245 17.2046 5.59844 16.7966 5.59844C15.5565 5.59844 14.3564 5.80646 13.2444 6.18249L12.7083 4.55037C12.6123 4.25435 12.3483 4.03834 12.0363 4.00633C11.7243 3.96633 11.4202 4.11834 11.2602 4.39036L9.81212 6.86253C8.82806 6.11048 7.61997 5.59844 6.39589 5.59844C5.95586 5.59844 5.59583 5.95847 5.59583 6.3985C5.59583 6.83853 5.95586 7.19856 6.39589 7.19856C7.32395 7.19856 8.25202 7.64659 8.98807 8.24663L4.35575 11.3348C4.05973 11.5269 3.93172 11.8949 4.03572 12.2309C4.13173 12.5669 4.44375 12.7989 4.79578 12.7989H6.34788C5.86785 14.039 5.59583 15.3911 5.59583 16.7992C5.59583 16.9992 5.61183 17.1912 5.62783 17.3913C5.57983 17.5593 5.59583 17.7353 5.65184 17.8873C6.19587 23.5597 10.9802 28 16.7966 28C22.981 28 27.9974 22.9837 27.9974 16.7992C27.9974 11.3428 24.1011 6.80653 18.9328 5.80646ZM16.7966 26.3999C11.8683 26.3999 7.79598 22.6636 7.25995 17.8793L8.02 17.1432C8.10001 19.2794 8.94806 21.3995 10.5802 23.0237C12.2923 24.7358 14.5485 25.5998 16.8046 25.5998C19.0608 25.5998 21.3089 24.7438 23.029 23.0237C23.3411 22.7116 23.3411 22.2076 23.029 21.8956C22.717 21.5836 22.213 21.5836 21.901 21.8956C19.0928 24.7038 14.5245 24.7038 11.7163 21.8956C9.98014 20.1595 9.31609 17.7433 9.73212 15.4871L10.0841 15.1431L12.9723 18.8874C13.1164 19.0874 13.3564 19.1994 13.5964 19.1994C13.6844 19.1994 13.7724 19.1834 13.8524 19.1594C14.1804 19.0474 14.3964 18.7434 14.3964 18.3993V12.7029L20.0928 11.9909C20.4529 11.9429 20.7409 11.6629 20.7889 11.3028C20.8369 10.9428 20.6369 10.5988 20.3008 10.4548L16.9246 9.07069L18.5727 7.36657C23.021 8.20663 26.3973 12.1109 26.3973 16.7992C26.3973 22.0956 22.093 26.3999 16.7966 26.3999ZM10.0361 9.46271C10.0521 9.45471 10.0521 9.44671 10.0601 9.43871C10.2762 9.78273 10.3962 10.1188 10.3962 10.3988C10.3962 10.8388 10.7562 11.1988 11.1962 11.1988C11.6363 11.1988 11.9963 10.8388 11.9963 10.3988C11.9963 9.63872 11.6122 8.78267 10.9882 8.00661L11.7323 6.73452L12.0763 7.7906C12.2043 8.17462 12.5963 8.40664 12.9963 8.32663L16.0126 7.70259L14.9405 8.81467C14.7565 9.00668 14.6765 9.2787 14.7325 9.53472C14.7885 9.79074 14.9645 10.0068 15.2125 10.1108L16.8606 10.7828L13.4924 11.2068C13.1004 11.2548 12.7963 11.5989 12.7963 11.9989V16.0472L10.7962 13.447C10.6602 13.263 10.4442 13.151 10.2202 13.135C10.2042 13.135 10.1801 13.135 10.1641 13.135C9.95613 13.135 9.75612 13.215 9.60411 13.359L7.988 14.9271L8.76405 12.2069C8.83606 11.9749 8.78805 11.7189 8.63604 11.5189C8.48403 11.3188 8.24402 11.1988 7.996 11.1988H7.43596L10.0361 9.46271Z" fill="#359740"/>
</svg>
