<svg width="28" height="28" viewBox="0 0 28 28" fill="none" xmlns="http://www.w3.org/2000/svg">
<path d="M7.0116 6.53993C6.82785 7.12353 7.2841 8.41472 7.48514 8.63978L7.30999 8.93701L10.8536 21.3102C11.0527 22.0593 11.63 22.1064 11.8938 22.0363L21.1521 19.575C22.0715 19.4642 22.2296 18.9543 22.1938 18.7131L18.7839 5.88667L18.4051 5.7367C18.5608 5.4725 18.6515 4.1139 18.169 3.57374C17.5658 2.89854 7.24127 5.81045 7.0116 6.53993Z" stroke="#359740" stroke-width="1.5"/>
<path d="M4.0383 13.1509C3.95222 13.7724 4.69241 14.897 4.9525 15.0577L4.82067 15.3979L11.0199 26.415C11.3787 27.0865 12.0105 26.9648 12.2815 26.82L21.7951 21.7375C22.7656 21.3629 22.8382 20.8205 22.7532 20.5962L16.611 9.09906L16.1737 9.06296C16.2908 8.76059 16.1276 7.41169 15.5034 7.02585C14.7231 6.54354 4.14591 12.3741 4.0383 13.1509Z" fill="white" stroke="#359740" stroke-width="1.5"/>
</svg>
