<svg width="32" height="32" viewBox="0 0 32 32" fill="none" xmlns="http://www.w3.org/2000/svg">
<path d="M9.0071 12.2446C8.42376 12.5924 7.81332 12.8006 7.16384 12.8702C6.72626 12.9194 6.31006 12.8687 5.96197 12.7338C5.3913 12.5075 4.96788 12.1 4.70726 11.527C4.64712 11.3948 4.64297 11.2416 4.70207 11.1005C4.94404 10.5143 5.3524 10.1028 5.92169 9.85687C6.26326 9.7093 6.68344 9.65182 7.11987 9.68426C8.02204 9.75657 8.84824 10.0983 9.64342 10.7012L10.0745 10.6933C10.1645 10.3222 10.3599 9.98159 10.634 9.69993L10.4095 9.32329C9.4742 8.96568 8.74942 8.43903 8.22055 7.70844C7.9593 7.3537 7.79442 6.97264 7.74047 6.60016C7.64962 5.98822 7.79248 5.42372 8.15987 4.91215C8.24458 4.79318 8.37778 4.71378 8.52273 4.69586C9.14748 4.61605 9.71197 4.75891 10.207 5.12991C10.509 5.35455 10.7658 5.68085 10.9535 6.0794C11.34 6.89486 11.4585 7.78292 11.3281 8.77571L11.5526 9.15236C11.928 9.04065 12.3233 9.03537 12.6926 9.13273L12.9046 8.75735C12.7497 7.76648 12.8422 6.8772 13.2059 6.05657C13.3822 5.65265 13.6308 5.31773 13.9277 5.08474C14.4102 4.70372 14.971 4.53752 15.6018 4.60354C15.7466 4.6168 15.8794 4.6933 15.9744 4.81096C16.359 5.31004 16.5161 5.87632 16.4391 6.48869C16.3922 6.85904 16.2388 7.24927 15.9874 7.61078C15.6172 8.14894 15.1436 8.58684 14.5603 8.93455C14.3352 9.0687 14.0919 9.18263 13.8385 9.29011L13.6265 9.66549C13.7609 9.79702 13.8889 9.93862 13.9902 10.1086C14.0915 10.2785 14.1551 10.4584 14.2069 10.6393L14.6453 10.6332C15.4211 10.0027 16.2383 9.64004 17.1401 9.54452C17.5776 9.49535 17.9938 9.54607 18.3419 9.68097C18.9126 9.9073 19.336 10.3148 19.5966 10.8878C19.6568 11.02 19.6563 11.1759 19.6018 11.3142C19.4023 11.7942 19.0913 12.1601 18.6733 12.4093C18.5815 12.464 18.4869 12.5142 18.3868 12.5552C18.0452 12.7027 17.6296 12.7575 17.1886 12.7278C16.2864 12.6555 15.4602 12.3138 14.6697 11.708L14.2386 11.716C14.1504 12.0798 13.955 12.4204 13.6855 12.6993C13.7649 12.8325 13.8489 12.963 13.9283 13.0962C14.8471 13.4574 15.5618 13.9776 16.0898 14.6963C16.351 15.051 16.5159 15.4321 16.5699 15.8045C16.6266 16.1816 16.5833 16.5373 16.4622 16.8772C16.8577 17.4258 17.256 17.9479 17.6453 18.4442C17.6904 18.05 17.8062 17.6697 18.0044 17.3026C18.4304 16.5133 19.1528 15.9395 20.0863 15.657C20.8132 15.4353 21.5727 15.3935 22.3289 15.5342C22.5186 15.5705 22.6796 15.7048 22.7414 15.8921C22.8032 16.0794 22.7559 16.2819 22.6225 16.4236C22.249 16.8206 21.7747 17.5391 21.669 18.2495C21.5043 19.3623 20.8908 20.0144 20.2064 20.4224C19.9997 20.5456 19.7931 20.6376 19.5838 20.725C21.2714 22.5328 22.8233 23.7369 24.125 24.2184C24.4035 24.3201 24.5438 24.6286 24.4421 24.9071C24.3959 25.028 24.3141 25.1204 24.213 25.1807C24.0798 25.2601 23.911 25.2797 23.7534 25.2243C22.8163 24.874 21.8543 24.2522 20.9092 23.4709L20.8311 23.5174C20.4478 23.8455 20.0148 24.1845 19.5372 24.4692C18.6369 25.0059 17.5647 25.3586 16.3256 25.1074C15.4421 24.9306 14.2556 25.1647 13.5093 25.4165C13.3037 25.4893 13.0783 25.4245 12.9394 25.2645C12.8004 25.1045 12.7663 24.8697 12.8622 24.6755C13.2727 23.8394 13.8637 23.0763 14.6203 22.4136C15.5682 21.5809 16.6482 21.0742 17.7417 20.9453C17.9343 20.9238 18.1205 20.9125 18.3076 20.913C18.2893 20.8928 18.2683 20.868 18.25 20.8477C17.3368 19.8171 16.4917 18.7334 15.7472 17.7142C15.1363 17.7858 14.5837 17.6421 14.106 17.2794C13.8041 17.0547 13.5473 16.7284 13.3596 16.3299C12.9731 15.5144 12.8546 14.6264 12.9804 13.6363L12.7558 13.2597C12.3804 13.3714 11.9852 13.3767 11.6159 13.2793L11.4039 13.6547C11.5587 14.6456 11.4663 15.5348 11.1026 16.3555C10.9263 16.7594 10.6777 17.0943 10.3808 17.3273C10.2972 17.3958 10.208 17.4552 10.1162 17.5099C9.6982 17.7591 9.22378 17.8613 8.71131 17.8058C8.56371 17.7879 8.4337 17.716 8.33867 17.5983C7.95403 17.0993 7.79702 16.533 7.87399 15.9206C7.92091 15.5503 8.07427 15.16 8.32567 14.7985C8.84138 14.0554 9.54909 13.509 10.47 13.1219L10.6839 12.7392C10.5495 12.6077 10.4215 12.4661 10.3202 12.2961C10.2189 12.1262 10.1552 11.9463 10.1035 11.7654L9.67242 11.7734C9.44814 11.9506 9.23217 12.1105 9.0071 12.2446ZM7.03333 10.7506C6.76561 10.7296 6.52801 10.7592 6.33978 10.8402C6.10473 10.9368 5.93098 11.0839 5.80015 11.2926C5.93528 11.4984 6.11829 11.6384 6.35553 11.7335C6.54331 11.8083 6.78259 11.8338 7.05137 11.8043C7.59627 11.7472 8.0911 11.5643 8.57436 11.2576C8.07727 10.9562 7.5761 10.7943 7.03333 10.7506ZM15.0987 7.00753C15.2525 6.78513 15.3439 6.56255 15.3674 6.36178C15.3993 6.11244 15.356 5.88305 15.2438 5.66354C14.998 5.67934 14.7859 5.76218 14.5892 5.92301C14.4329 6.04728 14.2893 6.24495 14.1804 6.4904C13.9607 6.98865 13.8647 7.50651 13.8906 8.0825C14.3976 7.80518 14.7911 7.45233 15.0987 7.00753ZM17.2632 11.6624C17.5309 11.6833 17.7686 11.6537 17.9568 11.5727C18.1891 11.4715 18.3674 11.3217 18.4964 11.1203C18.3613 10.9145 18.1783 10.7745 17.9438 10.684C17.756 10.6092 17.5167 10.5837 17.2479 10.6132C16.703 10.6703 16.2128 10.8505 15.7249 11.1599C16.2193 11.4567 16.7205 11.6186 17.2632 11.6624ZM20.6121 18.0951C20.6953 17.535 20.9307 16.9901 21.2108 16.5305C20.9366 16.5508 20.6668 16.5996 20.3924 16.6822C19.9353 16.824 19.3034 17.1321 18.9365 17.8115C18.7217 18.2135 18.5043 18.841 18.9233 19.8363C19.9991 19.4689 20.4802 18.9705 20.6121 18.0951ZM9.19787 15.4054C9.04408 15.6278 8.95265 15.8504 8.92914 16.0511C8.89998 16.3051 8.936 16.5326 9.05276 16.7494C9.29858 16.7336 9.51066 16.6507 9.70737 16.4899C9.86363 16.3656 10.0073 16.168 10.1162 15.9225C10.3359 15.4243 10.4318 14.9064 10.406 14.3304C9.89898 14.6077 9.50546 14.9606 9.19787 15.4054ZM9.56351 5.99284C9.36036 5.84002 9.146 5.76237 8.89841 5.75431C8.79232 5.97318 8.75865 6.19868 8.79185 6.4528C8.82337 6.6519 8.92361 6.87228 9.07887 7.09099C9.40407 7.53212 9.80108 7.87441 10.312 8.13634C10.322 7.5577 10.2143 7.04292 9.97914 6.55436C9.86981 6.30828 9.72364 6.11527 9.56351 5.99284ZM17.8633 22.0058C16.9863 22.1114 16.1038 22.5317 15.3177 23.2181C15.0116 23.4877 14.7375 23.7694 14.4963 24.075C15.1716 23.9651 15.9007 23.9351 16.5359 24.0607C17.6678 24.2887 18.73 23.8983 20.0749 22.7605C19.5027 22.1242 18.8045 21.8929 17.8633 22.0058ZM14.7331 16.4201C14.9362 16.5729 15.1506 16.6505 15.3981 16.6586C15.5042 16.4397 15.5425 16.2115 15.5047 15.9601C15.4732 15.761 15.373 15.5406 15.2177 15.3219C14.8925 14.8808 14.4955 14.5385 13.9845 14.2766C13.9746 14.8552 14.0822 15.37 14.3174 15.8586C14.4268 16.1046 14.5729 16.2976 14.7331 16.4201ZM12.6959 12.1251C13.2011 11.8239 13.3681 11.1641 13.0669 10.6589C12.7658 10.1536 12.106 9.98665 11.6007 10.2878C11.0954 10.589 10.9285 11.2488 11.2296 11.754C11.5308 12.2593 12.1906 12.4263 12.6959 12.1251Z" fill="#359740"/>
</svg>
