<svg width="28" height="28" viewBox="0 0 28 28" fill="none" xmlns="http://www.w3.org/2000/svg">
<path d="M23.816 25.8608C23.9232 25.6944 23.9603 25.4924 23.9192 25.2987C23.8781 25.1051 23.7621 24.9356 23.5966 24.8272C22.7856 24.3009 21.8447 23.6847 20.8331 22.9895C21.227 21.4072 21.4812 19.7933 21.5928 18.1665C21.7548 15.2922 21.2621 12.9817 20.1259 11.1681C17.9142 7.66443 13.6997 6.80364 10.3089 6.10942C8.22383 5.68404 6.25725 5.28786 5.45244 4.38648C5.35774 4.28106 5.23511 4.20467 5.09877 4.16615C4.96243 4.12764 4.81797 4.12858 4.68214 4.16887C4.54631 4.20916 4.42468 4.28715 4.33135 4.39379C4.23802 4.50043 4.17682 4.63136 4.15484 4.77138C4.06177 5.22418 2.59789 15.6166 8.09172 21.0774C10.8 23.7605 14.6994 24.7537 19.6942 24.0216C20.8191 24.8359 21.8627 25.4954 22.7829 26.0804C22.9492 26.1877 23.1511 26.2248 23.3447 26.1836C23.5382 26.1425 23.7076 26.0264 23.816 25.8608V25.8608ZM9.13467 20.0173C5.25309 16.1793 5.34081 9.16337 5.50282 6.28907C6.93937 6.92229 8.45474 7.35878 10.0079 7.58674C13.2803 8.25175 16.9828 9.00859 18.8575 11.9676C20.29 14.2485 20.5009 17.5643 19.505 22.0511C15.5669 19.216 11.1242 15.3463 9.74538 10.9134C9.67814 10.7342 9.54494 10.5875 9.37308 10.5035C9.20123 10.4194 9.00372 10.4042 8.82106 10.4611C8.63839 10.518 8.4844 10.6427 8.39064 10.8096C8.29688 10.9764 8.27046 11.1728 8.31679 11.3585C9.73204 15.9436 13.9503 19.8007 17.8618 22.7093C14.1401 22.9576 11.2188 22.0571 9.15006 20.0107L9.13467 20.0173Z" fill="#359740"/>
</svg>
