<svg width="28" height="28" viewBox="0 0 28 28" fill="none" xmlns="http://www.w3.org/2000/svg">
<path d="M17.9835 19.7685C17.8325 19.7685 17.675 19.7488 17.5044 19.6963C16.3363 19.3747 15.0435 19.7488 14.2297 20.6347C13.8819 21.0088 13.416 21.2122 12.9172 21.2122C11.9328 21.2122 11.1322 20.4116 11.1322 19.4272C11.1322 19.3551 11.1453 19.2632 11.1585 19.1516C11.2963 18.2854 11.0797 17.4126 10.5613 16.7038C10.0494 16.0082 9.26189 15.5291 8.40877 15.3979C7.89689 15.3191 7.5097 14.8663 7.5097 14.3544C7.5097 14.0854 7.60814 13.8426 7.79189 13.6391C8.43502 12.9435 8.75002 11.9985 8.64502 11.0535C8.53345 10.1151 8.02814 9.26193 7.2472 8.7238C6.95189 8.52037 6.53845 8.59255 6.33502 8.88787C6.12502 9.18318 6.1972 9.59662 6.49908 9.80005C6.96502 10.1282 7.27345 10.6335 7.33908 11.2044C7.4047 11.7688 7.21439 12.3397 6.8272 12.7597C6.53845 13.0747 6.1972 13.6063 6.1972 14.3676C6.1972 15.5291 7.06345 16.5332 8.21189 16.7104C8.72377 16.7891 9.19627 17.0713 9.5047 17.4913C9.81314 17.9179 9.94439 18.4363 9.85908 18.9613C9.82627 19.1516 9.8197 19.3026 9.8197 19.4338C9.8197 21.1466 11.211 22.5313 12.9172 22.5313C13.79 22.5313 14.5972 22.1769 15.1944 21.5272C15.6866 20.9957 16.461 20.7726 17.1631 20.9629C17.4453 21.0416 17.721 21.081 17.99 21.081C18.351 21.081 18.6463 20.7857 18.6463 20.4247C18.6397 20.0638 18.3444 19.7685 17.9835 19.7685Z" fill="#359740"/>
<path d="M21.7241 21.3894C22.5444 20.4903 23.0497 19.2959 23.0497 17.9834C23.0497 17.3075 22.7675 16.5594 22.5312 15.9688C23.6469 15.0369 24.5 13.7506 24.5 12.1888C24.5 9.38656 22.2294 7.1225 19.4338 7.1225C18.8694 7.1225 18.4494 7.26688 17.9375 7.4375C17.4256 5.61313 15.6275 4.22188 13.6391 4.22188C12.7072 4.22188 12.0837 4.31375 11.375 4.8125C10.5809 3.88719 9.16344 3.5 7.84438 3.5C5.4425 3.5 3.5 5.4425 3.5 7.84438C3.5 9.3275 4.33344 10.5941 5.46875 11.375C4.75344 12.1494 4.22188 13.2256 4.22188 14.3609C4.22188 16.5331 6.00688 18.2722 8.09375 18.5938C8.05438 18.8497 7.84438 19.1647 7.84438 19.4338C7.84438 22.2359 10.115 24.5 12.9106 24.5C14.3806 24.5 15.6931 23.5353 16.625 22.5312C16.9859 22.8003 17.5175 23.0497 17.9834 23.0497C18.9941 23.0497 19.9325 22.7478 20.72 22.2425C21.2056 22.9316 21.6256 23.5812 21.9603 24.1653C22.085 24.3819 22.3016 24.5 22.5312 24.5C22.6428 24.5 22.7544 24.4738 22.8594 24.4147C23.1744 24.2375 23.2859 23.8372 23.1022 23.5222C22.7281 22.8725 22.2622 22.1506 21.7241 21.3894ZM17.4059 21.4812C17.1763 21.3041 16.9006 21.2188 16.625 21.2188C16.2706 21.2188 15.9163 21.3631 15.6603 21.6388C15.1288 22.2162 14.0591 23.1875 12.9106 23.1875C10.8697 23.1875 9.20937 21.5534 9.15688 19.5322C9.17 19.4994 9.18313 19.4731 9.19625 19.4403C9.26844 19.2697 9.35375 19.0531 9.39312 18.7906C9.44562 18.4494 9.36031 18.095 9.15688 17.8128C8.94688 17.5372 8.63844 17.3469 8.29063 17.2944C6.93875 17.0909 5.53437 15.9359 5.53437 14.3609C5.53437 13.6587 5.86906 12.8713 6.43344 12.2609C6.68937 11.9788 6.81406 11.6047 6.77469 11.2241C6.73531 10.8434 6.53187 10.5022 6.21687 10.2922C5.32437 9.68188 4.8125 8.78281 4.8125 7.84438C4.8125 6.17094 6.17094 4.8125 7.84438 4.8125C8.95344 4.8125 9.92469 5.14062 10.3775 5.66562C10.64 5.9675 11.0075 6.125 11.375 6.125C11.6375 6.125 11.9 6.04625 12.1297 5.88219C12.5234 5.60656 12.8319 5.53437 13.6391 5.53437C15.0041 5.53437 16.31 6.50563 16.6775 7.79187C16.7759 8.13969 17.0122 8.42844 17.3272 8.59906C17.5175 8.6975 17.7275 8.75 17.9375 8.75C18.0753 8.75 18.2197 8.73031 18.3575 8.68438L18.3903 8.67125C18.8628 8.51375 19.1056 8.435 19.4272 8.435C21.5009 8.435 23.1809 10.1216 23.1809 12.1888C23.1809 13.4422 22.3672 14.3872 21.6847 14.9581C21.245 15.3256 21.0941 15.9294 21.3106 16.4609C21.4484 16.8022 21.7372 17.5044 21.7372 17.9834C21.7372 18.8562 21.4353 19.6634 20.93 20.3C20.0572 19.1319 19.0531 17.8981 17.99 16.6644L20.4903 11.6703C20.6544 11.3487 20.5231 10.955 20.195 10.7909C19.8734 10.6269 19.4797 10.7581 19.3156 11.0863L17.0581 15.5947C16.0475 14.4528 15.0041 13.3306 13.9869 12.2872L14.6431 8.19875C14.7022 7.83781 14.4594 7.50313 14.0984 7.44406C13.7441 7.385 13.4028 7.62781 13.3438 7.98875L12.8384 11.1322C12.1034 10.3906 11.3816 9.71469 10.7188 9.12406V7.4375C10.7188 7.07656 10.4234 6.78125 10.0625 6.78125C9.70156 6.78125 9.40625 7.07656 9.40625 7.4375V8.00187C8.73688 7.47031 8.16594 7.07 7.73281 6.85344C7.40469 6.68938 7.01094 6.82063 6.85344 7.14219C6.68938 7.47031 6.82063 7.86406 7.14219 8.02156C7.71969 8.31031 8.57281 8.96 9.58344 9.8525C9.60313 9.86563 9.61625 9.87875 9.62937 9.89187C10.6859 10.8238 11.9197 12.0181 13.1994 13.3438H9.40625C9.04531 13.3438 8.75 13.6391 8.75 14C8.75 14.3609 9.04531 14.6562 9.40625 14.6562H14.3609C14.3872 14.6562 14.4069 14.6431 14.4331 14.6431C15.0959 15.3584 15.7653 16.1 16.415 16.8416L12.5103 17.9638C12.1625 18.0622 11.9591 18.4297 12.0641 18.7775C12.1428 19.0597 12.3988 19.25 12.6875 19.25C12.7466 19.25 12.8056 19.2434 12.8713 19.2237L17.3534 17.9375C18.2919 19.0466 19.1712 20.1425 19.9456 21.1794C19.3747 21.5338 18.6987 21.7437 17.9769 21.7437C17.9047 21.7372 17.6553 21.6584 17.4059 21.4812Z" fill="#359740"/>
</svg>
